<?xml version="1.0" encoding="utf-8"?>
<!-- Generator: Adobe Illustrator 16.0.0, SVG Export Plug-In . SVG Version: 6.00 Build 0)  -->
<!DOCTYPE svg PUBLIC "-//W3C//DTD SVG 1.1//EN" "http://www.w3.org/Graphics/SVG/1.1/DTD/svg11.dtd">
<svg version="1.1"
	 id="svg2985" xmlns:dc="http://purl.org/dc/elements/1.1/" xmlns:cc="http://creativecommons.org/ns#" xmlns:rdf="http://www.w3.org/1999/02/22-rdf-syntax-ns#" xmlns:svg="http://www.w3.org/2000/svg"
	 xmlns="http://www.w3.org/2000/svg" xmlns:xlink="http://www.w3.org/1999/xlink" x="0px" y="0px" width="568.68px"
	 height="229.378px" viewBox="834.176 339.223 568.68 229.378" enable-background="new 834.176 339.223 568.68 229.378"
	 xml:space="preserve">
<filter  width="1.303094" height="2.284179" id="filter3875" y="-0.64208943" x="-0.151547" color-interpolation-filters="sRGB">
	<feGaussianBlur  stdDeviation="20.34166" id="feGaussianBlur3877"></feGaussianBlur>
</filter>
<filter  width="1.2560182" height="2.8135893" id="filter3867" y="-0.90679473" x="-0.12800913" color-interpolation-filters="sRGB">
	<feGaussianBlur  stdDeviation="10.442402" id="feGaussianBlur3869"></feGaussianBlur>
</filter>
<filter  width="1.2698436" height="2.8069825" id="filter3855" y="-0.90349126" x="-0.1349218" color-interpolation-filters="sRGB">
	<feGaussianBlur  stdDeviation="19.356089" id="feGaussianBlur3857"></feGaussianBlur>
</filter>
<g id="layer1" transform="translate(0,-207.09448)" display="none">
	<rect id="rect2995" x="0" y="530.737" display="inline" fill="#868686" width="1345.293" height="219.872"/>
	<path id="path3765-1" display="inline" fill="#767676" d="M0,556.313c0,0,71.402-16.123,89.829,3.455
		c18.426,19.578,70.25-2.303,100.193-3.455c29.943-1.151,82.919-4.606,114.014,5.758c31.095,10.365,101.346,4.607,133.592,0
		c32.246-4.605,43.763,3.455,93.284,6.91c49.521,3.455,96.738-28.791,143.956-23.033c47.218,5.759,94.436,36.854,135.896,27.641
		c41.46-9.214,71.402-36.854,117.469-26.488s102.497,12.668,138.198,9.213s64.493-3.455,140.502-3.455s51.824-12.668,99.042-6.91
		c47.218,5.759,40.308-12.668,40.308-12.668V215.424H-1.152L0,556.313z"/>
	<path id="path3765" display="inline" fill="#C1C1C1" d="M0,548.313c0,0,71.402-16.123,89.829,3.455
		c18.426,19.578,70.25-2.303,100.193-3.455c29.943-1.151,82.919-4.606,114.014,5.758c31.095,10.365,101.346,4.607,133.592,0
		c32.246-4.605,43.763,3.455,93.284,6.91c49.521,3.455,96.738-28.791,143.956-23.033c47.218,5.759,94.436,36.854,135.896,27.641
		c41.46-9.214,71.402-36.854,117.469-26.488s102.497,12.668,138.198,9.213s64.493-3.455,140.502-3.455s51.824-12.668,99.042-6.91
		c47.218,5.759,40.308-12.668,40.308-12.668V207.424H-1.152L0,548.313z"/>
	<g id="path3797" display="inline" filter="url(#filter3867)">
		<path fill="none" stroke="#767676" stroke-width="5.6055" stroke-linecap="round" stroke-linejoin="round" d="M582.737,367.504
			c100.193,5.758,77.16-11.517,133.592-20.729c56.431-9.213,62.189-4.607,62.189-4.607"/>
	</g>
	<g id="path3799" display="inline" filter="url(#filter3875)">
		<path fill="none" stroke="#767676" stroke-width="10.5486" stroke-linecap="round" stroke-linejoin="round" d="M952.736,425.087
			c132.913-33.359,103.627-108.417,202.748-60.463c99.122,47.953,103.627,62.548,119.396,31.273"/>
	</g>
	<g id="path3795-7" display="inline" filter="url(#filter3855)">
		<path fill="none" stroke="#767676" stroke-width="11.4005" stroke-linecap="round" stroke-linejoin="round" d="M48.388,370.658
			c105.4,2.342,72.609,44.502,152.245,23.422s133.507-51.529,192.063-44.502"/>
	</g>
</g>
<g id="layer3" display="none">
	<g id="g4083" transform="matrix(0.57586611,0,0,0.57586611,72.147056,171.27185)" display="inline">
		<rect id="rect3987" x="1001.64" y="235.694" fill="#ACACAC" width="133.552" height="134.366"/>
		
			<rect id="rect3989" x="1021.184" y="256.052" opacity="0.524" fill="#363636" enable-background="new    " width="94.464" height="92.834"/>
		<rect id="rect4043" x="1021.589" y="256.458" fill="#5A5A5A" width="15.883" height="92.432"/>
		<rect id="rect4043-7" x="1053.145" y="256.219" fill="#5A5A5A" width="15.885" height="92.43"/>
		<rect id="rect4043-6" x="1084.09" y="256.254" fill="#5A5A5A" width="15.883" height="92.432"/>
		<path id="path3991" fill="#363636" d="M1028.513,256.459l86.32,86.32v6.107h-8.55l-84.691-84.691v-8.55L1028.513,256.459z"/>
		<path id="path3991-2" fill="#363636" d="M1115.193,263.048l-87.823,85.937h-6.214v-8.511l86.166-84.316h8.698L1115.193,263.048z"
			/>
		<path id="path4015" opacity="0.4567" fill="none" stroke="#363636" enable-background="new    " d="M1001.233,235.287
			L1022,256.459"/>
		<path id="path4017-1" opacity="0.4567" fill="none" stroke="#363636" stroke-width="0.9712" enable-background="new    " d="
			M1115.227,256.475l19.37-20.591"/>
		<path id="path4019" opacity="0.4567" fill="none" stroke="#363636" stroke-width="1.0477" enable-background="new    " d="
			M1114.857,348.503l20.514,21.737"/>
		<path id="path4021" opacity="0.4567" fill="none" stroke="#363636" stroke-width="0.9904" enable-background="new    " d="
			M1021.596,348.476l-19.96,21.181"/>
	</g>
</g>
<g id="layer6" display="none">
	
		<rect id="rect3923-4" x="764.338" y="450.836" transform="matrix(-0.6382 0.7699 -0.7699 -0.6382 1666.0004 187.1225)" display="inline" fill="#A0A0A0" width="49.389" height="68.354"/>
	<g id="g3963" transform="matrix(-0.4912034,-0.8710449,0.8710449,-0.4912034,790.15694,1292.6779)" display="inline">
		<g id="g3955">
			
				<rect id="rect3923" x="678.118" y="361.012" transform="matrix(0.3571 0.9341 -0.9341 0.3571 820.985 -402.4035)" fill="#D9D9D9" width="49.388" height="68.354"/>
			<path id="path3927" fill="#AAAAAA" d="M727.194,363.651l9.656-3.691l-2.015,4.508l4.689,2.096l-9.786,3.741L727.194,363.651z"/>
		</g>
		<text transform="matrix(0.3767 0.9263 -0.9263 0.3767 699.4974 376.5873)" font-family="'Garamond'" font-size="10.6376">DIÁRIO</text>
	</g>
</g>
<g id="layer4">
	<g id="g3994" transform="matrix(1.4279409,-0.08977021,0.09711905,1.5448361,-551.56451,-6.3937961)">
		<path id="path3984" fill="#6D6D6D" d="M1331.449,365.626c0,0,8.958,16.151-1.222,20.706
			c-10.179,4.555-111.565,23.191-122.151,25.676c-10.587,2.484-38.274,4.141-60.262,9.939c-21.987,5.798-50.896,14.08-56.597,13.666
			c-5.7-0.414-79.806-27.332-96.092-36.857c-16.287-9.525-34.609-19.463-40.717-29.403c-6.108-9.939-11.401-15.737-5.293-20.706
			c6.107-4.969,30.538-9.939,39.495-10.353c8.958-0.414,21.173-9.111,37.867-9.111c16.694,0,19.544-2.071,34.61-3.727
			c15.065-1.656,46.01-6.212,49.674-7.454c3.665-1.242,98.536-9.111,98.536-9.111L1331.449,365.626z"/>
		<path id="path3982" fill="#585858" d="M1114.02,318.349c0,0-8.551,0.815,0,6.108s53.34,37.053,75.734,49.267
			c22.394,12.215,38.274,24.43,37.867,26.466c-0.407,2.036,29.724-1.221,57.818-7.736c28.095-6.514,42.754-5.7,45.196-13.436
			c2.443-7.736,4.072-11.401-4.886-19.951c-8.958-8.551-112.787-50.489-120.115-49.674
			C1198.304,310.206,1114.02,318.349,1114.02,318.349L1114.02,318.349z"/>
		<path id="path3986" fill="#B0B0B0" d="M1345.292,344c0,0,0.407,1.629-6.514,5.293c-6.922,3.665-11.401,10.587-14.659,13.437
			c-3.257,2.85-18.322,8.957-19.951,10.994c-1.629,2.036-0.407,0.407-8.144-1.629c-7.736-2.036-54.528-23.167-62.704-32.574
			c-7-8.054-7.028-10.427-14.251-17.915c-3.675-3.81-6.514-2.036-3.664-4.072c2.85-2.036,23.208-7.329,29.723-12.215
			c6.515-4.886,5.293-9.773,9.772-8.551c4.479,1.222,15.473,11.401,26.873,13.844c11.401,2.443,39.088,15.065,43.16,18.73
			c4.072,3.664,7.329,11.401,12.622,12.622C1342.85,343.187,1345.292,344,1345.292,344L1345.292,344z"/>
		<path id="path3988" fill="none" stroke="#454545" d="M1263.044,320.792l4.479,13.029"/>
		<path id="path3990" fill="none" stroke="#454545" d="M1253.272,337.079c0,0,23.209-6.922,36.239-7.737
			c13.029-0.814,17.101,2.443,17.101,2.443"/>
		<path id="path3992" fill="#545454" d="M1332.263,345.222c0,0-5.293,3.258-11.401,6.922c-6.108,3.665-15.473,16.694-15.473,16.694
			s6.922-4.886,11.401-7.736C1321.27,358.251,1327.784,353.773,1332.263,345.222z"/>
	</g>
</g>
<g id="layer5" display="none">
	<g id="g4037" transform="matrix(0.47074094,0.22035525,-0.22035525,0.47074094,499.05063,37.7762)" display="inline">
		<rect id="rect4015" x="453.996" y="379.019" fill="#EDEDED" width="31.352" height="28.908"/>
		<path id="path4017" fill="#EDEDED" d="M485.598,382.275c0,10.796-7.132,19.545-15.927,19.546c-8.796,0-15.927-8.751-15.926-19.545
			c0.001-10.794,7.13-19.544,15.926-19.543C478.466,362.731,485.598,371.483,485.598,382.275z"/>
		<path id="path4017-0" fill="#EDEDED" d="M485.551,404.67c-0.001,10.232-7.111,18.526-15.88,18.526
			c-8.771,0-15.88-8.296-15.88-18.527l0,0c-0.001-10.231,7.109-18.526,15.878-18.525
			C478.441,386.144,485.551,394.437,485.551,404.67z"/>
	</g>
	<path id="path4042" display="inline" fill="none" stroke="#EDEDED" stroke-width="0.5198" d="M639.233,314.368
		c4.491-17.427,84.144-6.45,10.759-9.651C643.141,303.379,639.233,314.368,639.233,314.368z"/>
</g>
</svg>
