<?xml version="1.0" encoding="utf-8"?>
<!-- Generator: Adobe Illustrator 18.1.1, SVG Export Plug-In . SVG Version: 6.00 Build 0)  -->
<svg version="1.1" id="Layer_1" xmlns="http://www.w3.org/2000/svg" xmlns:xlink="http://www.w3.org/1999/xlink" x="0px" y="0px"
	 viewBox="0 0 1200 480" enable-background="new 0 0 1200 480" xml:space="preserve">
<path fill="#DDDDDD" d="M0.5,225.9c0,0,172,47.1,226.9,35c54.9-12.1,177.8-21.8,275.4-11.5c97.6,10.3,213.8,56.7,245.4,59.9
	c31.7,3.1,139.3,16.4,164.6,16.4s287.1,76.9,287.1,76.9V480H1L0.5,225.9z"/>
<path fill="#DDDDDD" d="M248,201.2V260h50v-65.8L248,201.2z M266,230h-10v-14h10V230z M288,227h-10v-14h10V227z"/>
<path fill="#DDDDDD" d="M314,185.4V255h59v-68.2L314,185.4z M335,220h-11v-17h11V220z M361,216h-12v-16h12V216z"/>
<path d="M766,185.3V480h249V191L766,185.3z"/>
<rect x="864" y="348" fill="#FFFFFF" width="56" height="132"/>
<g>
	<path d="M571.4,480h-30V376.7c0-9.1,7.6-16.2,16.7-15.7l1.2,0.1c6.8,0.4,12.1,6.1,12.1,12.9V480z"/>
	<ellipse fill="#FFFFFF" cx="550.7" cy="379.8" rx="2.3" ry="3.6"/>
	<ellipse fill="#FFFFFF" cx="560.2" cy="379.5" rx="2.7" ry="4.4"/>
</g>
<g>
	<path d="M604,480h-24.6v-84.9c0-7.4,6.3-13.3,13.7-12.9l1,0.1c5.6,0.3,10,5,10,10.6V480z"/>
	<ellipse fill="#FFFFFF" cx="587" cy="397.6" rx="1.9" ry="3"/>
	<ellipse fill="#FFFFFF" cx="594.9" cy="397.5" rx="2.3" ry="3.6"/>
</g>
<g>
	<path d="M677,480h-24.6v-84.9c0-7.4,6.3-13.3,13.7-12.9l1,0.1c5.6,0.3,10,5,10,10.6V480z"/>
	<ellipse fill="#FFFFFF" cx="660" cy="397.6" rx="1.9" ry="3"/>
	<ellipse fill="#FFFFFF" cx="667.9" cy="397.5" rx="2.3" ry="3.6"/>
</g>
<g>
	<path d="M637,480h-24.6v-64.9c0-7.4,6.3-13.3,13.7-12.9l1,0.1c5.6,0.3,10,5,10,10.6V480z"/>
	<ellipse fill="#FFFFFF" cx="620" cy="417.6" rx="1.9" ry="3"/>
	<ellipse fill="#FFFFFF" cx="627.9" cy="417.5" rx="2.3" ry="3.6"/>
</g>
</svg>
