<?xml version="1.0" encoding="utf-8"?>
<!-- Generator: Adobe Illustrator 18.1.1, SVG Export Plug-In . SVG Version: 6.00 Build 0)  -->
<svg version="1.1" id="Layer_1" xmlns="http://www.w3.org/2000/svg" xmlns:xlink="http://www.w3.org/1999/xlink" x="0px" y="0px"
	 viewBox="0 0 1200 480" enable-background="new 0 0 1200 480" xml:space="preserve">
<linearGradient id="SVGID_1_" gradientUnits="userSpaceOnUse" x1="0.5" y1="241.1806" x2="1200" y2="241.1806">
	<stop  offset="0" style="stop-color:#FFF1BF"/>
	<stop  offset="1" style="stop-color:#FFECE9"/>
</linearGradient>
<path fill="url(#SVGID_1_)" d="M0.5,2.4c0,0,172,88.6,226.9,65.9s177.8-41,275.4-21.6s213.8,106.6,245.4,112.5
	C780,165.1,894.7,56.7,920,56.7s278.6,14.8,278.6,14.8L1200,480H1L0.5,2.4z"/>
<linearGradient id="SVGID_2_" gradientUnits="userSpaceOnUse" x1="325.6239" y1="550.7101" x2="1097.7646" y2="104.9145">
	<stop  offset="0" style="stop-color:#2A1E00"/>
	<stop  offset="0.9854" style="stop-color:#000000"/>
</linearGradient>
<path fill="url(#SVGID_2_)" d="M485,26.8c0,0,13.4,152.2-31.5,251.1C427.6,334.9,284.8,480,284.8,480h911.3c0,0-64.8-153.3-77.7-225
	c-12.8-71.7-12.5-158.9-12.5-158.9L485,26.8z"/>
<linearGradient id="SVGID_3_" gradientUnits="userSpaceOnUse" x1="840.5458" y1="481" x2="840.5458" y2="78.297">
	<stop  offset="0" style="stop-color:#3F3A00"/>
	<stop  offset="1" style="stop-color:#2A1700"/>
</linearGradient>
<path fill="url(#SVGID_3_)" d="M485,27.8c0,0,58.3,152.2,13.4,251.1c-25.9,57,29.3,200.6,29.3,200.6l668.5,1.5
	c0,0-64.8-153.3-77.7-225c-12.8-71.7-12.5-158.9-12.5-158.9L485,27.8z"/>
</svg>
